<svg width="67" height="95" viewBox="0 0 67 95" fill="none" xmlns="http://www.w3.org/2000/svg">
<path d="M33.3158 0.628906C15.0827 0.628906 0.249512 15.4639 0.249512 33.6992C0.249512 51.3392 30.4798 91.5295 31.7676 93.2336C32.1294 93.7199 32.7091 94.0039 33.3159 94.0039C33.9228 94.0039 34.5025 93.7199 34.8643 93.2336C36.1519 91.5295 66.3824 51.3394 66.3824 33.6992C66.382 15.4639 51.5489 0.628906 33.3158 0.628906ZM33.3158 51.207C23.6643 51.207 15.8101 43.3518 15.8101 33.6992C15.8101 24.0465 23.6643 16.1913 33.3158 16.1913C42.9672 16.1913 50.8215 24.0465 50.8215 33.6992C50.8215 43.3518 42.9672 51.207 33.3158 51.207Z" fill="url(#paint0_linear)"/>
<defs>
<linearGradient id="paint0_linear" x1="-12.0987" y1="0.628906" x2="82.6607" y2="21.0017" gradientUnits="userSpaceOnUse">
<stop stop-color="#4BD8B5"/>
<stop offset="1" stop-color="#49D6DF"/>
</linearGradient>
</defs>
</svg>
