<svg width="34" height="48" viewBox="0 0 34 48" fill="none" xmlns="http://www.w3.org/2000/svg">
<path d="M17.308 0.240234C8.10397 0.240234 0.616211 7.72889 0.616211 16.934C0.616211 25.8387 15.8764 46.1267 16.5265 46.9869C16.7091 47.2324 17.0018 47.3758 17.3081 47.3758C17.6145 47.3758 17.9071 47.2324 18.0897 46.9869C18.7397 46.1267 34 25.8388 34 16.934C33.9998 7.72889 26.5121 0.240234 17.308 0.240234ZM17.308 25.7719C12.436 25.7719 8.47116 21.8067 8.47116 16.934C8.47116 12.0614 12.436 8.09612 17.308 8.09612C22.1801 8.09612 26.1449 12.0614 26.1449 16.934C26.1449 21.8067 22.1801 25.7719 17.308 25.7719Z" fill="url(#paint0_linear)"/>
<defs>
<linearGradient id="paint0_linear" x1="-5.61717" y1="0.240234" x2="42.2173" y2="10.5244" gradientUnits="userSpaceOnUse">
<stop stop-color="#4BD8B5"/>
<stop offset="1" stop-color="#49D6DF"/>
</linearGradient>
</defs>
</svg>
