<svg fill="none" height="47" viewBox="0 0 34 47" width="34" xmlns="http://www.w3.org/2000/svg"><path d="m17.0377 0c-9.05553 0-16.422466 7.36783-16.422466 16.4244 0 8.761 15.013966 28.7217 15.653566 29.568.1797.2416.4676.3826.769.3826s.5893-.141.769-.3826c.6395-.8463 15.6535-20.8069 15.6535-29.568-.0001-9.05657-7.3671-16.4244-16.4226-16.4244zm0 25.1198c-4.7934 0-8.69427-3.9013-8.69427-8.6954 0-4.794 3.90087-8.69526 8.69427-8.69526s8.6943 3.90126 8.6943 8.69526c0 4.7941-3.9009 8.6954-8.6943 8.6954z" fill="#eb5757"/></svg>