<svg id="Capa_1" enable-background="new 0 0 512.665 512.665" height="512" viewBox="0 0 512.665 512.665" width="512" xmlns="http://www.w3.org/2000/svg"><g id="XMLID_1403_"><g id="XMLID_1741_"><path id="XMLID_1081_" d="m12.346 502.332c-5.873-47.186 3.898-92.993 25.407-131.982-10.206 14.01-18.755 29.224-25.407 45.324-7.555-60.694 10.783-128.182 46.691-172.734-19.298 15.466-35.923 34.131-49.037 55.213 1.997-48.837 20.124-97.722 49.104-133.13.007-1.405-.043 1.396 0 0-19.337 15.479-35.97 34.169-49.104 55.283 3.677-89.922 61.813-165.788 142.306-195.517 20.243-9.278 42.757-14.457 66.482-14.457 57.299 0 107.552 30.167 135.743 75.484l1.465 151.385c-15.948 60.411 2.163 122.327 42.657 164.174 26.255 27.291 43.084 62.826 47.2 100.956z" fill="#fff"/></g><g id="XMLID_1511_"><path id="XMLID_1066_" d="m409.03 413.213c-27.926-.827-53.438-11.253-73.365-28.085-10.207 37.223-34.528 68.607-66.855 88.039 8.084-18.324 12.582-38.585 12.582-59.9 0-20.548-4.173-40.121-11.716-57.919-8.852 46.872-38.399 86.863-77.474 111.24v-.08c6.391-17.18 8.653-35.77 8.653-55.175 0-27.29-6.906-52.966-19.067-75.376-4.231 57.903-36.334 108.062-82.946 137.139 11.066-23.108 17.267-48.99 17.267-76.322 0-3.46-.103-6.915-.304-10.35h-.005c-51.88 13.881-89.754 72.672-103.454 115.908l433.507-.001c-3.544-32.835-16.523-63.739-36.823-89.118z" fill="#6d92ac"/></g><g id="XMLID_1742_"><path id="XMLID_164_" d="m321.871 161.72c0-.122 0 .122 0 0 0-19.299 2.622-38.194 7.529-55.932 3.266-11.804 14.027-19.967 26.275-19.967l39.745-.001c59.229 0 107.245 48.015 107.245 107.245v81.923c-19.671-23.117-48.973-37.786-81.706-37.786h-63.001c-12.983 0-24.946-7.762-29.552-19.9-4.592-12.101-16.185-20.098-29.121-20.098h-12.44c19.464 0 35.059-16.021 35.026-35.484z" fill="#ffcd69"/></g><g id="XMLID_55_"><path id="XMLID_214_" d="m395.421 75.821-35.446.001c-14.703-21.972-34.469-40.376-57.462-53.437-25.398-14.427-54.35-22.053-83.726-22.053-24.505 0-48.155 5.116-70.302 15.208-16.025 5.949-31.409 13.737-45.732 23.151-4.615 3.033-5.897 9.233-2.864 13.849 3.032 4.614 9.231 5.898 13.849 2.864 13.161-8.65 27.303-15.794 42.033-21.234.237-.088.472-.185.702-.29 19.613-8.99 40.579-13.548 62.315-13.548 47.625 0 91.445 22.103 119.68 59.725-8.948 4.674-15.893 12.897-18.706 23.065-5.236 18.927-7.892 38.78-7.892 58.597.012 6.818-2.615 13.384-7.397 18.174-4.678 4.686-10.891 7.276-17.507 7.308h-13.763c-5.522 0-10 4.478-10 10s4.478 10 10 10l26.083.003c8.729 0 16.674 5.483 19.771 13.646 4.302 11.337 13.599 19.999 24.913 23.968-5.664 27.798-4.831 56.635 2.532 84.028 6.98 25.969 19.63 50.107 36.823 70.466-15.015-4.145-28.976-11.493-41.206-21.823-2.606-2.201-6.156-2.923-9.417-1.911-3.259 1.012-5.777 3.615-6.68 6.906-6.729 24.535-19.893 46.383-38.024 63.609 2.259-10.714 3.396-21.681 3.396-32.826 0-21.437-4.208-42.236-12.509-61.822-1.719-4.058-5.888-6.52-10.276-6.04-4.382.471-7.939 3.756-8.757 8.087-6.412 33.947-24.611 65.066-51.141 88.4 1.437-9.451 2.146-19.598 2.146-30.56 0-27.985-7.012-55.699-20.278-80.146-2.118-3.902-6.557-5.948-10.895-5.006-4.34.935-7.544 4.619-7.868 9.047-3.041 41.617-21.826 80.452-51.717 108.832 3.997-15.31 6.012-31.118 6.012-47.286 0-3.62-.108-7.299-.32-10.935-.311-5.286-4.693-9.415-9.989-9.415-.873 0-1.741.114-2.585.34-38.786 10.378-71.024 44.127-91.79 80.509 2.482-28.617 10.933-56.44 25.084-82.093 2.551-4.622 1.067-10.431-3.386-13.266-4.456-2.837-10.346-1.72-13.453 2.548-3.062 4.203-5.979 8.509-8.746 12.906 2.222-47.015 18.822-94.56 45.899-128.153 3.203-3.974 2.899-9.723-.705-13.337-3.604-3.613-9.351-3.933-13.335-.742-10.201 8.176-19.628 17.141-28.221 26.828 6.886-32.869 21.004-63.905 40.73-88.69 2.149-1.689 3.694-4.357 3.805-7.944.004-.108.005-.216.005-.323.001-6.673-5.081-10.333-9.883-10.39-.038-.001-.076-.001-.114-.001-2.989 0-6.104 1.389-8.051 4.055-9.427 7.702-18.182 16.095-26.214 25.122 5.392-24.071 15.047-47.078 28.597-67.864 3.017-4.627 1.711-10.822-2.916-13.838-4.628-3.017-10.823-1.711-13.838 2.916-22.32 34.239-35.003 73.968-36.676 114.892-.186 4.537 2.709 8.629 7.049 9.966 1.847.568 3.757.577 5.525.103-7.293 21.72-11.632 44.71-12.575 67.777-.186 4.537 2.709 8.629 7.049 9.966 2.275.699 4.647.552 6.733-.304-11.515 35.067-15.842 73.553-11.368 109.503.355 2.852 1.897 5.324 4.122 6.91-6.045 25.896-7.479 52.786-4.122 79.748.581 4.663 4.33 8.293 9.01 8.723.309.028.615.042.92.042 4.32 0 8.201-2.795 9.527-6.979 13.008-41.056 45.229-87.671 84.191-104.898-.508 23.888-5.967 46.854-16.247 68.321-1.92 4.011-.962 8.808 2.353 11.772 3.312 2.964 8.186 3.384 11.96 1.031 40.198-25.077 69.146-64.472 81.488-109.331 3.453 12.685 5.231 25.849 5.231 39.084 0 20.265-2.625 37.172-8.025 51.688-.415 1.116-.628 2.376-.628 3.566 0 3.634 1.971 6.981 5.148 8.744 3.178 1.764 7.06 1.665 10.145-.26 32.77-20.441 57.917-50.227 72.06-84.485 1.223 7.442 1.838 15.015 1.838 22.682 0 19.424-3.947 38.219-11.731 55.864-1.759 3.987-.732 8.655 2.537 11.537 3.27 2.885 8.029 3.314 11.765 1.069 31.024-18.648 54.391-46.793 66.899-80.216 18.73 12.477 40.571 19.934 63.081 21.45 17.629 23.359 28.824 51.312 31.967 80.433.554 5.126 4.889 8.928 9.93 8.928.359 0 .722-.02 1.086-.059 5.491-.593 9.462-5.524 8.869-11.016-4.306-39.885-22.04-77.819-49.956-106.836-37.485-38.739-53.192-94.523-41.93-147.221l57.05.001c28.555 0 55.559 12.489 74.089 34.267 1.938 2.277 4.742 3.52 7.618 3.52 1.156 0 2.323-.2 3.45-.615 3.934-1.447 6.548-5.193 6.548-9.385v-81.923c0-64.649-52.596-117.244-117.244-117.244zm-63.55 85.899c0-18.016 2.411-36.075 7.167-53.265 2.058-7.438 8.899-12.633 16.638-12.633l39.745-.001c53.62 0 97.244 43.624 97.244 97.245v37.428c-7.84-9.179-17.009-17.22-27.285-23.815-19.854-12.742-42.869-19.477-66.56-19.477h-74.595c4.983-7.426 7.661-16.31 7.646-25.482zm26.088 65.481c-9.031 0-17.15-5.404-20.202-13.446-.873-2.3-1.945-4.489-3.19-6.554h64.253c28.894 0 56.219 12.323 75.522 32.875-16.331-8.359-34.572-12.875-53.382-12.875z"/><path id="XMLID_216_" d="m73.38 85.502c2.64 0 5.22-1.07 7.07-2.93 1.869-1.86 2.93-4.44 2.93-7.07s-1.061-5.21-2.93-7.07c-1.86-1.859-4.431-2.93-7.07-2.93-2.63 0-5.2 1.07-7.07 2.93-1.859 1.86-2.93 4.44-2.93 7.07s1.07 5.21 2.93 7.07 4.44 2.93 7.07 2.93z"/><path id="XMLID_221_" d="m240 130.929c5.522 0 10-4.478 10-10s-4.478-10-10-10h-24.146c-5.522 0-10 4.478-10 10s4.478 10 10 10z"/></g></g></svg>