<svg enable-background="new 0 0 511 511" height="512" viewBox="0 0 511 511" width="512" xmlns="http://www.w3.org/2000/svg"><path d="m511 316.085v81.574h-445.825c-24.245 0-43.9-19.655-43.9-43.9v-43.722z" fill="#24b353"/><path d="m266.137 313.061v84.598h244.863v-81.574z" fill="#19803c"/><g fill="#f5f5f8"><path d="m62.839 314.019h30.98v36.747h-30.98z"/><path d="m125.116 314.019h30.98v36.747h-30.98z"/><path d="m187.392 314.019h30.98v36.747h-30.98z"/><path d="m266.137 350.766h-15.49v-36.747h30.98z"/></g><path d="m266.137 314.019h15.49v36.747h-15.49z" fill="#cfdae2"/><path d="m311.946 314.019h30.98v36.747h-30.98z" fill="#cfdae2"/><path d="m374.223 314.019h30.98v36.747h-30.98z" fill="#cfdae2"/><path d="m453.075 159.875c-5.899-26.579-29.567-46.47-57.906-46.535-32.788-.074-59.61 27.615-59.61 60.403v9.413l-276.57 20.754v-8.573c0-16.071-12.6-29.656-28.665-30.097-16.669-.457-30.324 12.918-30.324 29.483v77.987c0 23.956 19.42 43.375 43.375 43.375h467.625v-143.272z" fill="#5fcc29"/><path d="m453.075 159.875c-5.899-26.579-29.567-46.47-57.906-46.535-32.788-.074-59.61 27.615-59.61 60.403v9.413l-276.57 20.754v-8.573c0-16.071-12.6-29.656-28.665-30.097-16.669-.457-30.324 12.918-30.324 29.483v77.987c0 23.956 19.42 43.375 43.375 43.375h222.762l244.863-10v-133.272z" fill="#5fcc29"/><g fill="#24b353"><path d="m453.075 159.875c-5.899-26.579-29.567-46.47-57.906-46.535-32.788-.074-59.61 27.615-59.61 60.403v9.412l-69.422 5.209v127.719h244.863v-143.27z"/><path d="m172.57 222.088v15.49h-30.98v-15.49c.22-8.26-.53-17.51-2.89-24.16l29.93-2.25c2.4 7.46 3.94 16.21 3.94 26.41z"/><path d="m236 225.328v12.25h-30.98v-15.49c.46-12.13-.58-19.51-3.31-28.89l29.78-2.23c2.26 8.78 4.51 18.11 4.51 34.36z"/></g><path d="m381.547 174.455h30v43.96h-30z" fill="#0a1133"/></svg>