<svg fill="none" height="12" viewBox="0 0 20 12" width="20" xmlns="http://www.w3.org/2000/svg"><path d="m19.8217 10.1784c-.0537-.0901-.3862-.81261-1.9864-2.29772-1.6751-1.55511-1.4501-1.30259.5676-3.99154 1.2288-1.63762 1.7201-2.63769 1.5663-3.065224-.1462-.407529-1.05-.300022-1.05-.300022l-3.0053.017502s-.2225-.030003-.3887.068755c-.1613.097507-.2651.322523-.2651.322523s-.4762 1.267596-1.1113 2.345176c-1.3388 2.27391-1.8751 2.39392-2.0939 2.25266-.5088-.32877-.3813-1.32259-.3813-2.02765 0-2.20391.3338-3.122726-.6513-3.360244-.3275-.0787554-.5675-.1312593-1.40382-.14000992-1.07257-.01125082-1.98139.00375027-2.49518.25501892-.34252.167512-.60629.54129-.44503.562541.19876.026252.6488.121259.88756.446284.30878.41878.29753 1.36135.29753 1.36135s.17751 2.59394-.41378 2.91646c-.40628.22127-.96258-.23001-2.15641-2.29392-.6113-1.05632-1.07383-2.22516-1.07383-2.22516s-.08876-.217515-.24752-.333773c-.19251-.141261-.46253-.186264-.46253-.186264l-2.857713.017501s-.428782.012502-.5862931.198765c-.1400103.166262-.0112509.508791-.0112509.508791s2.237667 5.23413 4.770347 7.87307c2.32392 2.41893 4.96162 2.26013 4.96162 2.26013h1.1951s.3613-.04.545-.2387c.17-.1825.1638-.5251.1638-.5251s-.0238-1.60383.7213-1.8401c.7338-.23252 1.6764 1.5501 2.6752 2.2364.755.5188 1.3288.405 1.3288.405l2.6715-.0375s1.3976-.0862.735-1.185z" fill="#fefefe"/></svg>